<svg width="156" height="57" fill="none" xmlns="http://www.w3.org/2000/svg"><path d="M31.785 22.856c-.79 0-1.477.144-2.064.432a4.256 4.256 0 0 0-1.44 1.104 4.573 4.573 0 0 0-.864 1.52 5.478 5.478 0 0 0-.272 1.68c0 .63.123 1.248.368 1.856.245.597.581 1.13 1.008 1.6.438.459.944.832 1.52 1.12.576.277 1.2.416 1.872.416.192 0 .416-.021.672-.064.267-.043.528-.123.784-.24.256-.128.49-.304.704-.528.224-.224.395-.517.512-.88h.16v1.776c-.16 0-.33.021-.512.064l-.576.144a12.06 12.06 0 0 1-.928.208c-.33.064-.682.096-1.056.096-.928 0-1.744-.16-2.448-.48a5.359 5.359 0 0 1-1.76-1.248 5.171 5.171 0 0 1-1.056-1.728 5.766 5.766 0 0 1-.352-1.968c0-.661.117-1.317.352-1.968a5.013 5.013 0 0 1 1.072-1.744c.48-.523 1.083-.944 1.808-1.264.726-.32 1.579-.48 2.56-.48.352 0 .667.032.944.096.288.064.544.128.768.192.16.053.304.096.432.128.139.021.272.032.4.032v1.776h-.16a1.844 1.844 0 0 0-.96-1.328 2.389 2.389 0 0 0-.736-.24 3.683 3.683 0 0 0-.752-.08Zm11.089 9.984h.08c.256 0 .384-.117.384-.352a.861.861 0 0 0-.048-.272l-1.44-3.888h-2.8l-1.392 3.824a.685.685 0 0 0-.048.24c0 .139.037.25.112.336a.336.336 0 0 0 .24.112h.08V33h-1.776v-.16h.08c.139 0 .272-.08.4-.24.139-.17.25-.368.336-.592l3.664-9.76 3.584 9.664c.075.213.176.421.304.624.139.203.315.304.528.304h.08V33h-2.368v-.16Zm-3.664-5.056h2.464l-1.232-3.344-1.232 3.344Zm7.63 5.056h.08a.34.34 0 0 0 .223-.08.856.856 0 0 0 .16-.224.865.865 0 0 0 .112-.272.861.861 0 0 0 .048-.272v-8.56a.822.822 0 0 0-.048-.256.865.865 0 0 0-.112-.272.637.637 0 0 0-.16-.208.307.307 0 0 0-.224-.096h-.08v-.16h2.304v.16h-.08a.307.307 0 0 0-.224.096.635.635 0 0 0-.16.208c-.042.085-.08.176-.112.272a1.191 1.191 0 0 0-.032.256v8.976h3.504a.955.955 0 0 0 .528-.144 1.29 1.29 0 0 0 .368-.352c.107-.15.182-.304.224-.464.054-.17.08-.325.08-.464h.16V33h-6.56v-.16Zm8.077 0h.08a.34.34 0 0 0 .224-.08.856.856 0 0 0 .16-.224.865.865 0 0 0 .112-.272.861.861 0 0 0 .048-.272v-8.56a.822.822 0 0 0-.048-.256.865.865 0 0 0-.112-.272.637.637 0 0 0-.16-.208.307.307 0 0 0-.224-.096h-.08v-.16h2.304v.16h-.08a.307.307 0 0 0-.224.096.635.635 0 0 0-.16.208 2.01 2.01 0 0 0-.112.272 1.191 1.191 0 0 0-.032.256v8.976h3.504a.955.955 0 0 0 .528-.144 1.29 1.29 0 0 0 .368-.352c.107-.15.181-.304.224-.464.053-.17.08-.325.08-.464h.16V33h-6.56v-.16Zm21.482 0h.08a.29.29 0 0 0 .208-.096.853.853 0 0 0 .16-.224.86.86 0 0 0 .112-.272c.021-.107.032-.203.032-.288v-8.416l-4.128 9.632-3.92-9.136v7.92c0 .085.01.181.032.288.021.096.053.187.096.272.053.085.112.16.176.224a.307.307 0 0 0 .224.096h.08V33h-1.744v-.16h.08a.29.29 0 0 0 .208-.096.853.853 0 0 0 .16-.224 1.236 1.236 0 0 0 .128-.56v-8.528c0-.075-.011-.16-.032-.256a1.173 1.173 0 0 0-.096-.272.635.635 0 0 0-.16-.208.29.29 0 0 0-.208-.096h-.08v-.16h1.632l3.712 8.752 3.712-8.752h1.808v.16h-.08a.307.307 0 0 0-.224.096.864.864 0 0 0-.176.208 1.182 1.182 0 0 0-.096.272 1.197 1.197 0 0 0-.032.256v8.528c0 .085.01.181.032.288.021.096.053.187.096.272.053.085.112.16.176.224a.307.307 0 0 0 .224.096h.08V33h-2.272v-.16Zm4.47 0h.08a.34.34 0 0 0 .223-.08.853.853 0 0 0 .16-.224.86.86 0 0 0 .112-.272.861.861 0 0 0 .048-.272v-8.56a.822.822 0 0 0-.048-.256.86.86 0 0 0-.112-.272.635.635 0 0 0-.16-.208.307.307 0 0 0-.224-.096h-.08v-.16h6.16v1.488h-.16a1.04 1.04 0 0 0-.288-.64c-.17-.192-.437-.288-.8-.288h-3.216v4.048h2.656a.856.856 0 0 0 .608-.224.681.681 0 0 0 .256-.528h.16v2h-.16a.636.636 0 0 0-.24-.496c-.16-.139-.368-.208-.624-.208h-2.656v4.848h3.504a.955.955 0 0 0 .528-.144 1.398 1.398 0 0 0 .592-.768c.053-.16.08-.293.08-.4h.16V33h-6.56v-.16Zm13.201 0h.08a.29.29 0 0 0 .208-.096.856.856 0 0 0 .16-.224.863.863 0 0 0 .112-.272c.021-.107.032-.203.032-.288v-8.512c0-.075-.01-.16-.032-.256a.863.863 0 0 0-.112-.272.534.534 0 0 0-.176-.224.307.307 0 0 0-.224-.096h-.08v-.16h2.624c.992 0 1.765.219 2.32.656.565.437.848 1.019.848 1.744 0 .31-.053.587-.16.832a2.45 2.45 0 0 1-.416.656 2.89 2.89 0 0 1-.528.496 5.1 5.1 0 0 1-.544.32c.448.085.821.23 1.12.432.299.203.539.437.72.704.192.256.325.533.4.832.075.299.112.592.112.88 0 .555-.101 1.024-.304 1.408a2.737 2.737 0 0 1-.816.928 3.33 3.33 0 0 1-1.152.512c-.427.107-.87.16-1.328.16H94.07v-.16Zm5.376-2.752c-.085-.821-.363-1.456-.832-1.904-.47-.448-1.13-.672-1.984-.672h-.896v4.96h.928c.864 0 1.541-.192 2.032-.576.501-.395.752-.939.752-1.632v-.176Zm-.656-5.104c-.032-.619-.25-1.11-.656-1.472-.395-.363-.928-.544-1.6-.544h-.8V27h.832c.448 0 .81-.059 1.088-.176.288-.117.517-.267.688-.448.17-.192.288-.4.352-.624.064-.224.096-.443.096-.656v-.112Zm9.86 7.856h.08c.256 0 .384-.117.384-.352a.861.861 0 0 0-.048-.272l-1.44-3.888h-2.8l-1.392 3.824a.685.685 0 0 0-.048.24c0 .139.037.25.112.336a.337.337 0 0 0 .24.112h.08V33h-1.776v-.16h.08c.139 0 .272-.08.4-.24a2.12 2.12 0 0 0 .336-.592l3.664-9.76 3.584 9.664c.075.213.176.421.304.624.139.203.315.304.528.304h.08V33h-2.368v-.16Zm-3.664-5.056h2.464l-1.232-3.344-1.232 3.344Zm13.262-4.928c-.79 0-1.478.144-2.064.432a4.256 4.256 0 0 0-1.44 1.104 4.573 4.573 0 0 0-.864 1.52 5.457 5.457 0 0 0-.272 1.68c0 .63.122 1.248.368 1.856.245.597.581 1.13 1.008 1.6a5.44 5.44 0 0 0 1.52 1.12c.576.277 1.2.416 1.872.416.192 0 .416-.021.672-.064.266-.043.528-.123.784-.24.256-.128.49-.304.704-.528.224-.224.394-.517.512-.88h.16v1.776c-.16 0-.331.021-.512.064l-.576.144c-.278.075-.587.144-.928.208a5.558 5.558 0 0 1-1.056.096c-.928 0-1.744-.16-2.448-.48-.704-.32-1.291-.736-1.76-1.248a5.149 5.149 0 0 1-1.056-1.728 5.756 5.756 0 0 1-.352-1.968c0-.661.117-1.317.352-1.968a5.003 5.003 0 0 1 1.072-1.744c.48-.523 1.082-.944 1.808-1.264.725-.32 1.578-.48 2.56-.48.352 0 .666.032.944.096.288.064.544.128.768.192.16.053.304.096.432.128.138.021.272.032.4.032v1.776h-.16a1.852 1.852 0 0 0-.352-.816 1.746 1.746 0 0 0-.608-.512 2.395 2.395 0 0 0-.736-.24 3.686 3.686 0 0 0-.752-.08Zm7.184 9.984h.08V33h-2.288v-.16h.08c.086 0 .16-.032.224-.096a.84.84 0 0 0 .16-.224.84.84 0 0 0 .112-.272c.022-.107.032-.203.032-.288v-8.528c0-.075-.01-.16-.032-.256a.84.84 0 0 0-.112-.272.627.627 0 0 0-.16-.208.29.29 0 0 0-.208-.096h-.08v-.16h2.288v.16h-.08a.308.308 0 0 0-.224.096.878.878 0 0 0-.176.208c-.042.085-.08.176-.112.272a1.217 1.217 0 0 0-.032.256v3.712l4.064-4.032a.382.382 0 0 0 .096-.256c0-.17-.064-.256-.192-.256h-.08v-.16h1.952v.16h-.08a.84.84 0 0 0-.464.16c-.16.107-.32.24-.48.4l-3.36 3.344 3.536 5.36a4.198 4.198 0 0 0 .448.528c.128.117.267.224.416.32.16.085.32.128.48.128V33h-.384a5.89 5.89 0 0 1-.816-.048 2.039 2.039 0 0 1-.56-.192 1.816 1.816 0 0 1-.432-.32 4.022 4.022 0 0 1-.368-.48l-3.104-4.688-.672.688v4c0 .085.011.176.032.272.032.096.07.192.112.288.043.085.096.16.16.224a.308.308 0 0 0 .224.096Z" fill="#000"/><path fill-rule="evenodd" clip-rule="evenodd" d="M61 8H20C8.954 8 0 16.954 0 28s8.954 20 20 20h41v-1H20C9.507 47 1 38.493 1 28S9.507 9 20 9h41V8Zm34 39h41c10.493 0 19-8.507 19-19s-8.507-19-19-19H95V8h41c11.046 0 20 8.954 20 20s-8.954 20-20 20H95v-1Z" fill="#fff"/><path d="m77.95.417-1.09 2.069-1.056 2.069c.757 1.452 1.426 2.711 2.174 4.138l2.175-4.138-1.118-2.07L77.95.418Zm10.961 7.052-.105-.062-.106-.07-.114-.062-.106-.07-.115-.062-.105-.062-.106-.061-.114-.062-.115-.061-.105-.053-.115-.062-.114-.062-.106-.061-.114-.053-.115-.062-.114-.052-.115-.053-.114-.053-.115-.062-.061-.026-1.013 2.21.044.017.106.044.097.053.105.053.097.044.097.053.106.053.097.052.097.044.096.053.106.062.097.053.097.053.097.052.096.053.097.062.097.053.097.052.097.062.097.062.088.053 1.267-2.07-.088-.052Zm-4.736-2.157-.123-.035-.123-.035-.123-.044-.124-.036-.123-.026-.132-.035-.123-.035-.124-.036-.123-.026-.132-.035-.123-.036-.123-.026-.132-.026-.124-.027-.132-.035-.123-.026-.132-.018-.123-.026-.07-.018-.44 2.386.052.009.114.026.115.018.106.026.114.026.114.027.115.026.106.027.114.017.114.036.106.026.115.026.114.036.106.026.105.026.115.036.105.035.115.026.105.035.115.036.044.017.73-2.315-.043-.009-.124-.044Zm-10.054-.59-.132.027-.132.026-.123.018-.132.026-.123.035-.132.027-.124.026-.132.026-.123.036-.123.035-.123.026-.133.036-.123.035-.123.035-.123.026-.124.036-.123.044-.132.035-.114.035-.053.018.73 2.315.036-.018.114-.035.106-.026.106-.035.114-.036.114-.026.106-.026.115-.036.105-.026.115-.026.105-.036.115-.017.114-.027.115-.026.105-.027.115-.026.114-.026.115-.018.114-.026.106-.018.061-.009-.44-2.386-.053.01Zm-4.903 1.55-.115.052-.114.062-.115.053-.114.053-.115.052-.114.062-.115.053-.114.062-.106.061-.114.062-.115.053-.105.061-.115.062-.105.061-.115.062-.105.062-.115.07-.106.062-.105.07-.097.053 1.277 2.069.079-.053.097-.062.088-.052.096-.053.097-.062.097-.053.106-.052.097-.053.097-.053.096-.062.097-.053.097-.044.106-.052.097-.053.096-.053.106-.044.097-.053.106-.053.096-.044.106-.044.053-.026-1.013-2.201-.052.018Zm8.732 49.902-1.091-2.07-1.056-2.068c.757-1.453 1.426-2.712 2.174-4.138l2.175 4.138-1.118 2.069-1.083 2.069Zm10.961-7.052-.105.062-.106.07-.114.062-.106.07-.115.062-.105.061-.106.062-.114.062-.115.061-.105.053-.115.062-.114.061-.106.062-.114.053-.115.062-.114.052-.115.053-.114.053-.115.062-.061.026-1.013-2.21.044-.017.106-.044.097-.053.105-.053.097-.044.097-.053.106-.053.097-.053.097-.044.096-.052.106-.062.097-.053.097-.053.097-.052.096-.053.097-.062.097-.053.097-.053.097-.061.097-.062.088-.053 1.267 2.07-.088.052Zm-4.736 2.157-.123.035-.123.035-.123.044-.124.035-.123.027-.132.035-.123.035-.124.035-.123.027-.132.035-.123.035-.123.027-.132.026-.124.027-.132.035-.123.026-.132.018-.123.026-.07.018-.44-2.386.052-.009.114-.026.115-.018.106-.026.114-.027.114-.026.115-.026.106-.027.114-.017.114-.036.106-.026.115-.026.114-.036.106-.026.105-.027.115-.035.105-.035.115-.026.105-.036.115-.035.044-.017.73 2.315-.043.009-.124.044Zm-10.054.59-.132-.027-.132-.026-.123-.018-.132-.026-.123-.035-.132-.027-.124-.026-.132-.027-.123-.035-.123-.035-.123-.027-.133-.035-.123-.035-.123-.035-.123-.027-.124-.035-.123-.044-.132-.035-.114-.035-.053-.018.73-2.315.036.017.114.036.106.026.106.035.114.035.114.027.106.026.115.035.105.027.115.026.105.036.115.017.114.026.115.027.105.026.115.027.114.026.115.018.114.026.106.018.061.009-.44 2.385-.053-.008Zm-4.903-1.549-.115-.053-.114-.062-.115-.053-.114-.053-.115-.053-.114-.061-.115-.053-.114-.062-.106-.061-.114-.062-.115-.053-.105-.061-.115-.062-.105-.062-.115-.061-.105-.062-.115-.07-.106-.062-.105-.07-.097-.053 1.277-2.07.079.054.097.061.088.053.096.053.097.062.097.052.106.053.097.053.097.053.096.062.097.052.097.044.106.053.097.053.096.053.106.044.097.053.106.053.096.044.106.043.053.027-1.013 2.2-.052-.017Z" fill="#fff"/></svg>