<svg width="121" height="64" fill="none" xmlns="http://www.w3.org/2000/svg"><path d="M71.181 24.997v.327l.083.082v.245l.082.082v.49h.083v.163l1.567-.163v-.409l-.082-.081v-.409l-.083-.082v-.245l-.082-.081v-.327l-.083-.082-1.567.409v.081h.082Zm.909-2.205v-.164l-.083-.081v-.082l-.083-.082v-.163l-.082-.082v-.082h-.083v-.081l-.082-.082v-.082l-.083-.081v-.164l-.082-.081v-.082h-.083v-.082l-1.402.817v.082l.083.082.082.081v.164l.083.081.082.082v.163l.082.082v.082l.083.082v.163h.082v.163l.083.082 1.485-.654-.083-.081Zm-1.651-2.942-.083-.08v-.082l-.082-.082-.083-.082-.082-.082v-.081l-.083-.082h-.082v-.082l-.083-.081-.082-.082-.083-.082-.082-.081v-.082h-.083l-.082-.082v-.082h-.083l-1.154 1.063v.081h.082l.083.082v.082h.082v.081l.083.082h.082v.082l.083.081.082.082.082.082v.081l.083.082.083.082.082.082.082.081 1.32-.898-.082-.082ZM68.13 17.4h-.083l-.083-.081-.082-.082-.083-.082h-.082l-.083-.082-.082-.081-.083-.082h-.082l-.083-.082-.082-.081h-.083l-.082-.082-.083-.082-.082-.081h-.083l-.082-.082-.825 1.389.083.081h.082l.083.082.082.082h.082v.081h.083l.082.082h.083v.082h.082l.083.082.082.081.083.082.082.082h.083v.081h.082l.99-1.225V17.4Zm-4.784-.817.082.082h.083l.082.082h.165l.083.081h.082l.083.082h.165v.082h.165l.082.081h.083l.742-1.47h-.165l-.082-.082h-.083l-.082-.081h-.166l-.082-.082h-.165v-.082h-.082l-.083-.081h-.165l-.082-.082h-.165l-.083-.082h-.165l-.495 1.552h.248Zm-3.052-.571.082.081h.743l.082.082h.413l.33-1.552h-.248l-.082-.082h-.495l-.083-.082h-.825l-.082 1.553h.165Zm21.692 9.068v.652l-.083.163v.49l-.082.082v.163h2.64v-.326l.082-.082v-.899l.082-.163v-.082l-2.64-.081v.081Zm-.412-4.82v.326l.082.082v.327l.083.081v.409l.082.163v.572l.083.163v.245l2.557-.245v-.49l-.083-.163v-.41l-.082-.163v-.49l-.083-.164v-.245l-.082-.163v-.163l-.083-.164v-.081l-2.556.571h.082Zm-1.567-4.657.082.163v.082l.083.164.082.081v.163l.082.082.083.164v.081l.082.164.083.081v.164l.082.163v.082l.083.163v.082l.082.163v.082l.083.163 2.474-.817-.082-.081v-.164l-.083-.163-.082-.163v-.082l-.083-.164v-.163l-.082-.163-.083-.082v-.163l-.082-.164-.083-.163v-.082l-.082-.163-.082-.163-.083-.082v-.164l-.082-.163-2.392 1.062Zm-2.475-4.166.083.163.082.082.083.082.082.163.083.082.082.081.083.164.082.082.083.081.082.164v.081l.082.164.083.081.082.082.083.163.082.082.083.082v.163l2.227-1.307v-.163l-.083-.082-.082-.163-.082-.082-.083-.163-.082-.164-.083-.082-.082-.163-.083-.082-.082-.163-.083-.082-.082-.163-.083-.082-.082-.163-.083-.082-.082-.163-.165-.082-.083-.082v-.081l-2.062 1.552Zm-3.216-3.431.165.163.082.082.083.081.082.082.083.082.165.081.082.082.083.082.082.082.083.163.082.082.165.081.082.082.083.082.082.081.083.164h.083l1.897-1.716-.083-.081-.082-.082-.083-.163-.165-.082-.082-.082-.083-.163-.165-.082-.082-.082-.083-.081-.082-.164-.165-.081-.083-.082-.082-.082-.165-.163-.083-.082-.082-.082-.165-.081-.082-.082-.083-.082-1.732 1.961h.082l.083.082Zm-4.042-2.778.083.082h.165l.082.082.165.081.083.082.082.082.165.082h.083l.165.081.082.082.083.082.165.081.082.082.165.082.082.081.083.082h.165l1.402-2.124-.082-.082-.165-.081-.083-.082-.165-.082-.082-.081-.165-.082-.083-.082-.165-.081h-.082l-.165-.082-.165-.082-.083-.081-.165-.082-.082-.082-.165-.082-.165-.081-.082-.082-.165-.082-1.238 2.288.165.081ZM65.82 3.43h.165l.083.083h.165l.165.081h.082l.165.082h.083l.165.082h.164l.083.081.165.082h.082l.165.082h.083l.165.081h.082l.99-2.369h-.165l-.082-.081-.165-.082h-.165l-.165-.082-.083-.081h-.165l-.165-.082h-.165l-.082-.082-.165-.081h-.165l-.165-.082h-.082L66.727.98h-.165l-.165-.082h-.165l-.66 2.451h.165l.082.082Zm-4.784-.816h.825l.165.082h.495l.165.081h.414l.082.082.412-2.532-.082-.082h-.413l-.165-.082h-.495l-.165-.081h-.66L61.449 0h-.579l-.165 2.532.165.082h.165Zm15.671 22.71v.082l.083.163v.654l.082.081v.327H79.1v-.898l-.083-.082v-.491l-.082-.164v-.163l-2.228.408v.082Zm-1.072-4.003v.164l.082.081v.082l.083.082v.081l.082.164v.081l.083.082v.164l.082.163v.082l.083.081v.245l.082.082v.164l2.227-.572v-.164l-.082-.081v-.164l-.083-.082v-.081l-.082-.164v-.081l-.083-.082v-.163l-.082-.082v-.245l-.083-.082-.082-.163v-.082l-.083-.082v-.163l-.082-.082v-.081l-.083-.164-2.062.899v.082l.083.081Zm-2.145-3.676.083.082.083.082.082.081v.082l.083.082.082.081v.082l.083.082.082.082.083.081v.163l.082.082.083.082v.082l.082.081.083.082v.082l.082.081v.082l1.98-1.144v-.081l-.083-.082-.082-.082v-.081l-.083-.164-.082-.081-.083-.082-.082-.082v-.163l-.083-.082-.082-.082-.083-.081v-.082l-.082-.082-.083-.163-.082-.082-.082-.081-.083-.082v-.082l-.083-.082-.082-.081-1.815 1.307.083.082v.081Zm.083-3.349-.082-.082-.083-.082-.082-.081-.083-.082-.082-.082-.083-.081-.082-.082-.083-.082-.082-.081-.083-.082-.082-.082-.082-.082-.083-.081-.083-.082-.082-.082-.082-.081-.083-.082-.165-.082-.082-.081-1.485 1.715.082.082.083.082h.082l.083.081.082.082.083.082.082.081.083.082h.082l.083.082v.081l.082.082.083.082.082.082.083.081h.082l.083.082.082.082.083.081.082.082v.082l1.65-1.634h-.083Zm-4.867-3.676h-.082l-.165-.082-.083-.082h-.082l-.082-.081-.166-.082h-.082l-.082-.082h-.083l-.99 2.043h.083l.082.081h.083l.082.082h.165l.083.082.082.082h.083l.082.081h.083l.082.082.083.082h.164l.083.081h.082l.083.082.082.082h.083l.082.081.083.082h.082l1.238-1.879-.083-.082-.165-.081h-.082l-.083-.082-.082-.082h-.083l-.165-.081-.082-.082-.083-.082h-.165l-.082-.081-.083-.082Zm-5.278-1.797-.165-.082h-.083l-.412 2.206h.082l.083.082h.33l.082.081h.248l.082.082h.248l.082.082h.165l.165.081h.165l.082.082h.248v.082l.742-2.206h-.165l-.165-.082h-.082l-.083-.081h-.247l-.165-.082H64.5l-.165-.082h-.082l-.165-.081h-.248l-.082-.082h-.33Zm-.082 45.583-.165.164-.083.163-.082.082-.165.163-.083.163-.082.082-.165.163-.083.164-.165.082-.082.163-.083.082-.082.163-.165.163-.082.082-.083.164L63.676 58l.082-.082.165-.163.082-.082.083-.163.165-.082.082-.164.083-.163.165-.082.082-.163.083-.082.165-.163.082-.163.083-.082.165-.163.082-.164-1.98-1.634Zm3.216-3.839-.165.163-.082.082-.165.163-.083.163-.165.164-.082.163-.165.082-.082.163-.083.164-.165.163-.082.163-.165.082-.083.164 1.98 1.633.082-.163.165-.082.083-.163.165-.163.082-.164.165-.081.082-.164.165-.163.083-.164.165-.163.082-.082.165-.163.083-.163.082-.082-1.98-1.716-.082.164Zm-7.01-38.15c.742-1.389 1.237-2.369 2.062-3.84l-.99-1.96-.99-1.879-1.072 1.96-.99 1.961c.66 1.307 1.32 2.451 1.98 3.758ZM46.931 6.372h.083l.082-.082.165-.081.083-.082.165-.082.082-.082.083-.081.165-.082.082-.082h.083l.165-.081.082-.082.165-.082.083-.081.164-.082h.083l.082-.082h.083l-1.237-2.287h-.083l-.082.082-.165.081-.083.082-.165.082-.165.081-.082.082-.165.082-.082.081h-.165l-.083.082-.165.082-.082.082-.165.081-.165.082-.083.082-.165.081-.082.082-.083.082 1.485 2.124.082-.082Zm4.785 12.498h.082l.083-.081.082-.082h.083v-.081h.082l.083-.082h.082v-.082l.083-.081h.082v-.082h.083l.082-.082.083-.081h.082l.083-.082.082-.082-.907-1.307-.083.082h-.082v.081h-.083l-.082.082h-.083l-.082.082v.081h-.083l-.082.082h-.083l-.082.082v.082h-.083l-.082.081h-.082v.082l-.083.082h-.082l-.083.081v.082h-.082l1.072 1.225v-.081Zm-1.156-5.718.083-.081h.082l.083-.082.082-.082h.165l.083-.081h.082l.083-.082.082-.082h.083l.082-.081h.083l.165-.082.082-.082h.083l.082-.082h.083l.082-.081h.083l.082-.082-.907-2.042-.083.082h-.082l-.165.081h-.083l-.082.082-.165.082h-.083l-.082.081-.083.082h-.165l-.082.082-.083.081h-.082l-.165.082-.082.082-.083.082h-.082l-.165.081-.083.082h-.082l-.083.082 1.155 1.96.082-.082Zm-10.31.327.083-.163v-.082l.083-.082.082-.163.083-.082.082-.082.083-.163.082-.082.083-.163.082-.082v-.081l.083-.164.082-.081.083-.082.082-.163.083-.082.082-.082.083-.082-2.145-1.552v.082l-.082.082-.083.163-.082.082-.083.163-.082.082-.165.163-.083.082-.082.163-.083.082-.082.163-.083.082-.082.163-.083.164v.082l-.082.163-.083.082-.082.163-.083.082 2.227 1.307.083-.082Zm2.888-3.839.082-.082.083-.164.082-.081.083-.082.164-.082.083-.082.082-.081.083-.164.082-.081.083-.082.165-.082.082-.081.083-.082.082-.082.083-.081.165-.082.082-.164.083-.081-1.65-1.88h-.082l-.083.083-.082.081-.165.082-.083.082-.082.163-.165.082-.083.081-.082.082-.165.164-.083.081-.082.082-.083.082-.165.163-.082.082-.083.081-.165.164-.082.081-.083.082v.082l1.898 1.715Zm4.124 6.126v-.081l.083-.082.082-.082h.083l.082-.081.083-.082.082-.082.083-.082.082-.081.083-.082h.082l.083-.082.082-.081.083-.082v-.082l.082-.081h.083l.082-.082.083-.082.082-.081-1.402-1.716-.083.082h-.082l-.083.082-.082.081-.083.082-.082.082-.083.081-.165.082-.082.082-.082.081-.083.082-.082.082-.083.081-.082.082-.083.082-.082.082-.083.081-.082.082-.083.082-.082.081h-.083l1.65 1.634.082-.082Zm3.958-11.6.083-.082.165-.081h.082l.165-.082h.165l.083-.082.165-.081h.082l.165-.082h.083l.165-.082h.165l.082-.081h.165l.083-.082h.164l.165-.082-.66-2.45h-.082L52.54.98h-.165l-.082.082h-.165l-.165.082h-.165l-.083.081-.165.082h-.165l-.165.082h-.082l-.165.081-.165.082h-.165l-.082.082-.165.081h-.165l-.083.082.99 2.37h.082Zm4.62-1.306.165-.083h.412l.165-.081h.577l.083-.082h1.072L58.15 0h-.495l-.165.082h-.66l-.165.081h-.413l-.165.082h-.495l-.165.082.413 2.532Zm1.402 13.397h.165l.083-.082h.412l.082-.082h.66l-.165-1.633h-.412l-.083.081h-.494l-.083.082h-.412l-.083.082h-.165l.413 1.552h.082Zm-2.804-4.82h.082l.083-.082h.247l.082-.081h.165l.166-.082h.164l.083-.082h.247l.083-.081h.33l.082-.082h.165l-.412-2.206h-.165l-.083.082h-.412l-.082.082h-.248l-.083.081h-.164l-.083.082h-.247l-.165.082h-.165l-.165.081h-.083l-.165.082.66 2.124h.083ZM34.56 25.488v.571l.082.164v.407h2.64v-.245l-.082-.163v-.654l-.083-.163v-.327l-2.557.163v.246Zm19.713-8.251h.083v-.082h.164l.083-.082h.082l.083-.082h.165l.082-.081h.083l.082-.082h.165l.083-.081h.082l.083-.082h.082l-.577-1.47h-.165l-.083.081h-.082l-.083.082h-.165l-.082.081h-.165l-.082.082h-.083l-.082.082h-.083l-.082.082h-.083l-.082.081h-.083l-.082.082.742 1.389Zm-5.444 2.369v.081l-.083.082-.082.082-.083.081v.082l-.082.082v.081h-.083v.082l1.32.899.082-.082v-.082l.083-.081.082-.082v-.082h.083v-.081l.082-.082.083-.082v-.081l.082-.082h.083v-.082h.082v-.082l.083-.081.082-.082-1.237-1.062v.082h-.082l-.083.082v.081l-.082.082h-.083v.082l-.082.081-.083.082-.082.082Zm-.495 4.166.082-.081v-.082l.083-.082v-.163l.082-.082V23.2l.083-.081v-.164h.082v-.163l.083-.082v-.081h.082v-.164l-1.402-.735-.083.082v.081l-.082.082v.082l-.083.081v.082l-.082.082v.163l-.083.082v.082l-.082.081v.164l-.082.081v.082l-.083.082v.081l-.082.082 1.567.572v-.082Zm8.826 32.84-.083-.163-.082-.164-.165-.081-.083-.164-.082-.082-.165-.163-.083-.163-.082-.082-.083-.163-.165-.164-.082-.081-.083-.164-.164-.163-.083-.082-.082-.082-1.98 1.634.165.164.083.163.082.082.165.163.082.163.083.082.165.164.082.163.083.082.165.163.082.082.083.163.082.163.165.082v.082l2.062-1.552-.082-.082Zm-3.217-4.003-.165-.163-.082-.164-.083-.081-.165-.164-.082-.163-.165-.164-.083-.081-.165-.164-.082-.163-.165-.163-.083-.164-.082-.081-.165-.164v-.082l-2.062 1.634.082.082.083.082.165.163.082.163.083.164.165.163.082.082.165.163.083.164.165.163.082.163.165.082.083.164.082.163h.083l1.98-1.552v-.082ZM37.2 22.628l.082-.163v-.572l.082-.082v-.571l.083-.164v-.245l.082-.163v-.245l.083-.082-2.557-.572-.083.163v.327l-.082.082v.327l-.083.163v.49l-.082.164v.408l-.083.163v.409l2.557.245v-.082Zm19.63 37.66.082.081 2.64 3.186 2.722-3.267-2.722-2.451-2.722 2.45Zm2.72-9.885-1.154 1.47-1.154 1.471 1.154 1.552 1.155 1.47 1.155-1.47 1.154-1.552-1.154-1.47-1.073-1.47h-.082ZM40.169 24.752v.409l-.083.082v.653l-.082.082v.653h2.227l.082-.081v-.817l.083-.082v-.408l.082-.164-2.31-.327Zm-1.981-6.862.083-.163v-.082l.082-.163V17.4l.083-.163.083-.082v-.163l.082-.164v-.081l.082-.164.083-.081v-.164l.082-.082v-.163l.083-.082.082-.163v-.082l.083-.082-2.392-1.061v.081l-.083.164-.082.081-.083.164v.163l-.082.082-.083.163v.163l-.082.164-.083.082v.163l-.082.163-.082.164v.081l-.083.164v.163l-.082.164-.083.081v.082l2.474.817v-.082Zm6.434 1.226.083-.082v-.082l.082-.081.083-.082v-.082l.082-.081.083-.164v-.081l.082-.082.083-.082.082-.081v-.082l.083-.082.082-.082v-.081l.083-.082.082-.082.083-.081v-.082l.082-.082-1.815-1.307h-.082v.164l-.082.081-.083.082-.082.082-.083.081-.082.082v.163l-.083.082-.082.082-.083.082-.082.081v.082l-.083.163-.082.082-.083.082v.081l-.082.164-.083.081-.082.082v.082l1.98 1.144v-.082Zm-1.732 3.921.083-.082v-.245l.083-.082v-.081l.082-.082v-.245l.083-.082v-.081l.082-.082v-.163l.083-.082v-.163l.082-.082v-.164l.083-.081v-.082l.082-.082-2.062-.898-.082.081-.083.164v.082l-.082.081v.164l-.083.081v.082l-.082.163v.082l-.083.082v.163l-.082.082v.163l-.083.082v.082l-.082.163v.163l-.083.164v.163l2.145.572Zm4.784 3.513v-.082l.082-.082v-.49l.083-.082v-.327l.082-.081v-.164l-1.567-.326v.081l-.082.082v.327l-.083.081v.409l-.082.081v.654h1.567v-.082Zm72.007 12.253-5.527-4.247c-.742-.572-1.072-1.308-1.072-2.043 0-1.879 1.732-2.696 3.382-2.696 1.567 0 3.052.572 3.052 2.37h.33l-.083-2.941h-.907c-.742-.164-1.567-.245-2.557-.245-1.65 0-3.217.571-4.124 1.96-.99 1.552-.66 3.758.742 4.983l5.526 4.166c.66.572.99 1.307.99 2.206 0 2.124-1.979 3.023-3.876 3.023-2.31 0-3.959-1.47-3.63-3.84h-.329c-.248.654-.33 1.389-.33 2.042 0 .654 0 1.144.082 1.308 1.072.98 3.299 1.307 4.784 1.307 2.557 0 4.866-1.798 4.866-4.412 0-1.307-.495-2.287-1.319-2.94ZM91.39 45.012c-.33-.245-.578-.654-.578-1.062V31.042c0-.408.248-.735.578-.98.494-.408.99-.408 1.65-.408v-.245h-6.187v.245c.66 0 1.155 0 1.65.408.33.327.577.654.577 1.062V43.95c0 .898-.99 1.47-1.815 1.47h-.412v.245h6.269v-.245c-.743 0-1.238 0-1.733-.408Zm-8.991-1.552c-.412-.409-.907-1.062-1.567-1.88l-.99-1.225c-.825-1.143-1.567-1.878-2.144-2.123 2.556-.246 4.289-2.124 4.289-4.657 0-3.104-2.887-4.248-5.61-4.248H69.45v.245h.412c.825 0 1.567.572 1.567 1.389v12.907c0 .409-.165.735-.495 1.062-.495.409-.907.409-1.484.409v.245h5.608v-.245c-.412 0-.742 0-1.155-.164-.494-.327-.742-.735-.742-1.307V30.226h1.485c1.484 0 3.134-.082 4.371.98 1.32 1.225 1.237 3.513.33 4.983-.247.327-.66.654-1.237.98-.412.246-1.732.327-3.877.327v.245c1.733 0 3.135 2.37 4.124 3.676.99 1.39 1.65 2.533 3.135 3.513 1.237.899 2.804.817 4.289.817v-.245c-1.65-.082-2.475-.98-3.382-2.042ZM67.552 29.572v-3.43c-.165.08-.495.163-1.073.326-.577.163-1.32.245-2.227.245h-9.32c-.907 0-2.474-.163-3.3-.49v3.43h.248v-.49c0-.898.66-1.633 1.567-1.633h5.197v16.338c0 .49-.165.817-.578 1.144-.495.49-.907.49-1.567.49v.245h6.021v-.245h-.33c-.99 0-1.732-.735-1.732-1.716V27.448h5.197c.907 0 1.567.735 1.567 1.634v.49h.33Zm34.973-.245h-6.434v.245h.413c.825 0 1.567.572 1.567 1.47V43.95c0 .408-.165.735-.495 1.062-.495.408-.907.408-1.485.408v.245h5.692v-.245c-.413 0-.743 0-1.155-.163-.495-.245-.743-.735-.825-1.307V30.144h2.639c2.31 0 4.372 1.062 4.372 3.595 0 .653-.083 1.143-.165 1.47-.33.98-.907 1.797-1.732 2.206-1.072.735-2.805.816-4.042.49v.245c.908.408 1.897.653 2.887.653 2.969 0 5.031-1.96 5.031-4.901 0-3.35-3.299-4.575-6.268-4.575Z" fill="#1D1D1B"/><path d="M60.376 47.544c0-.817-.578-1.062-1.402-.653-6.351 3.349-11.63-2.124-16.332-9.803l4.454-6.127c.33-.409.743-.735 1.155-.98.66-.409 1.155-.409 1.815-.409v-.245h-6.104v.245c.412 0 .825 0 1.155.409.247.326.412.653.082 1.062L41.9 36.026l-3.464-4.983c-.248-.409-.165-.654.082-1.062.248-.409.743-.409 1.155-.409v-.245H33.24v.245h.33c.99 0 2.063.572 2.64 1.389l4.619 6.617-5.114 6.535c-.907 1.062-1.65 1.307-2.97 1.307v.245h6.022v-.245c-.413 0-.907 0-1.155-.408-.247-.409-.412-.735-.082-1.144l4.041-5.392c7.836 11.274 18.888 12.172 18.806 9.068Zm-52.54-2.696h-3.96V28.592c0-.327.083-.572.248-.899.495-.817 1.072-.817 1.897-.817v-.245H0v.245h.33c.99 0 1.732.736 1.732 1.716v15.113c0 .98-.825 1.715-1.732 1.715H0v.245h11.382l1.568-4.411h-.248c-.907 2.37-2.227 3.594-4.866 3.594Zm19.548-15.194h.412c.743 0 1.32.49 1.32 1.143v9.15c0 3.35-2.145 5.391-5.526 5.391-3.547 0-5.197-2.369-5.197-5.718v-8.823c0-.326.165-.571.413-.817.412-.408.825-.326 1.32-.326v-.245h-5.197v.245c.495 0 .907 0 1.32.326.247.246.412.49.412.817v9.15c0 4.084 2.97 6.127 6.846 6.127 3.877 0 6.846-2.043 6.846-6.127v-9.15c0-.245.083-.408.165-.571.413-.572.907-.572 1.567-.572v-.245h-4.701v.245Z" fill="#1D1D1B"/></svg>