<svg width="88" height="36" fill="none" xmlns="http://www.w3.org/2000/svg"><path d="M18.612 13.439c-.79 0-1.478.144-2.064.432a4.256 4.256 0 0 0-1.44 1.104 4.573 4.573 0 0 0-.864 1.52 5.478 5.478 0 0 0-.272 1.68c0 .63.122 1.248.368 1.856.245.597.581 1.13 1.008 1.6a5.45 5.45 0 0 0 1.52 1.12c.576.277 1.2.416 1.872.416.192 0 .416-.021.672-.064.266-.043.528-.123.784-.24.256-.128.49-.304.704-.528.224-.224.394-.517.512-.88h.16v1.776c-.16 0-.331.021-.512.064l-.576.144c-.278.075-.587.144-.928.208a5.558 5.558 0 0 1-1.056.096c-.928 0-1.744-.16-2.448-.48-.704-.32-1.291-.736-1.76-1.248a5.171 5.171 0 0 1-1.056-1.728 5.763 5.763 0 0 1-.352-1.968c0-.661.117-1.317.352-1.968a5.013 5.013 0 0 1 1.072-1.744c.48-.523 1.082-.944 1.808-1.264.725-.32 1.578-.48 2.56-.48.352 0 .666.032.944.096.288.064.544.128.768.192.16.053.304.096.432.128.138.021.272.032.4.032v1.776h-.16a1.844 1.844 0 0 0-.96-1.328 2.389 2.389 0 0 0-.736-.24 3.684 3.684 0 0 0-.752-.08ZM29.7 23.423h.08c.256 0 .384-.117.384-.352a.861.861 0 0 0-.048-.272l-1.44-3.888h-2.8l-1.392 3.824a.685.685 0 0 0-.048.24c0 .139.038.25.112.336a.336.336 0 0 0 .24.112h.08v.16h-1.776v-.16h.08c.14 0 .272-.08.4-.24.14-.17.251-.368.336-.592l3.664-9.76 3.584 9.664c.075.213.176.421.304.624.14.203.315.304.528.304h.08v.16H29.7v-.16Zm-3.664-5.056H28.5l-1.232-3.344-1.232 3.344Zm7.63 5.056h.08a.34.34 0 0 0 .224-.08.853.853 0 0 0 .16-.224.86.86 0 0 0 .112-.272.861.861 0 0 0 .048-.272v-8.56a.822.822 0 0 0-.048-.256.86.86 0 0 0-.112-.272.635.635 0 0 0-.16-.208.307.307 0 0 0-.224-.096h-.08v-.16h2.304v.16h-.08a.307.307 0 0 0-.224.096.637.637 0 0 0-.16.208 2.08 2.08 0 0 0-.112.272 1.197 1.197 0 0 0-.032.256v8.976h3.504a.955.955 0 0 0 .528-.144c.15-.096.272-.213.368-.352a1.43 1.43 0 0 0 .224-.464c.053-.17.08-.325.08-.464h.16v2.016h-6.56v-.16Zm8.077 0h.08a.34.34 0 0 0 .224-.08.853.853 0 0 0 .16-.224.86.86 0 0 0 .112-.272.861.861 0 0 0 .048-.272v-8.56a.822.822 0 0 0-.048-.256.86.86 0 0 0-.112-.272.635.635 0 0 0-.16-.208.307.307 0 0 0-.224-.096h-.08v-.16h2.304v.16h-.08a.307.307 0 0 0-.224.096.637.637 0 0 0-.16.208 2.08 2.08 0 0 0-.112.272 1.197 1.197 0 0 0-.032.256v8.976h3.504a.955.955 0 0 0 .528-.144c.15-.096.272-.213.368-.352a1.43 1.43 0 0 0 .224-.464c.054-.17.08-.325.08-.464h.16v2.016h-6.56v-.16Zm21.482 0h.08a.29.29 0 0 0 .208-.096.856.856 0 0 0 .16-.224.863.863 0 0 0 .112-.272c.022-.107.032-.203.032-.288v-8.416l-4.128 9.632-3.92-9.136v7.92c0 .085.01.181.032.288.021.096.053.187.096.272.053.085.112.16.176.224a.307.307 0 0 0 .224.096h.08v.16h-1.744v-.16h.08a.29.29 0 0 0 .208-.096.856.856 0 0 0 .16-.224 1.14 1.14 0 0 0 .096-.272c.022-.107.032-.203.032-.288v-8.528c0-.075-.01-.16-.032-.256a1.173 1.173 0 0 0-.096-.272.637.637 0 0 0-.16-.208.29.29 0 0 0-.208-.096h-.08v-.16h1.632l3.712 8.752 3.712-8.752h1.808v.16h-.08a.307.307 0 0 0-.224.096.862.862 0 0 0-.176.208 1.173 1.173 0 0 0-.096.272 1.197 1.197 0 0 0-.032.256v8.528c0 .085.01.181.032.288.021.096.053.187.096.272.053.085.112.16.176.224a.307.307 0 0 0 .224.096h.08v.16h-2.272v-.16Zm4.47 0h.08a.34.34 0 0 0 .224-.08.856.856 0 0 0 .16-.224.863.863 0 0 0 .112-.272.861.861 0 0 0 .048-.272v-8.56a.822.822 0 0 0-.048-.256.863.863 0 0 0-.112-.272.637.637 0 0 0-.16-.208.307.307 0 0 0-.224-.096h-.08v-.16h6.16v1.488h-.16a1.04 1.04 0 0 0-.288-.64c-.171-.192-.438-.288-.8-.288H69.39v4.048h2.656a.856.856 0 0 0 .608-.224.681.681 0 0 0 .256-.528h.16v2h-.16a.636.636 0 0 0-.24-.496c-.16-.139-.368-.208-.624-.208H69.39v4.848h3.504a.955.955 0 0 0 .528-.144 1.4 1.4 0 0 0 .592-.768c.053-.16.08-.293.08-.4h.16v1.872h-6.56v-.16Z" fill="#000"/><rect x=".5" y=".5" width="87" height="35" rx="17.5" stroke="#fff"/></svg>