<svg width="49" height="21" fill="none" xmlns="http://www.w3.org/2000/svg"><path d="m24.267 0-2.382 4.514-2.305 4.514c1.652 3.17 3.112 5.916 4.745 9.028l4.744-9.028-2.44-4.514L24.268 0Zm24.171 15.386-.23-.134-.231-.154-.25-.134-.23-.154-.25-.134-.23-.135-.231-.134-.25-.135-.25-.134-.23-.115-.25-.135-.25-.134-.23-.135-.25-.115-.25-.135-.25-.115-.249-.115-.25-.115-.25-.135-.134-.057-2.209 4.82.096.04.23.095.212.116.23.115.212.096.211.115.23.115.212.116.211.096.212.115.23.134.211.116.212.115.211.115.211.115.212.135.211.115.211.115.212.135.21.134.193.116 2.766-4.514-.192-.116ZM38.119 10.68l-.269-.077-.269-.077-.269-.096-.269-.077-.269-.057-.288-.077-.269-.077-.268-.077-.27-.057-.288-.077-.268-.077-.27-.058-.288-.057-.268-.058-.289-.077-.269-.057-.288-.039-.269-.057-.153-.039-.96 5.206.115.019.25.057.249.039.23.057.25.058.25.058.25.057.23.058.25.038.25.077.23.058.25.057.25.077.23.058.23.058.25.076.23.077.25.058.23.077.25.077.097.038 1.594-5.052-.096-.02-.269-.095ZM15.504 9.393l-.288.057-.288.058-.27.038-.287.058-.27.077-.287.058-.27.057-.287.058-.27.077-.268.076-.27.058-.287.077-.27.077-.268.077-.269.057-.269.077-.269.096-.288.077-.25.077-.115.038 1.594 5.052.077-.038.25-.077.23-.058.23-.077.25-.077.25-.057.23-.058.25-.077.231-.057.25-.058.23-.077.25-.038.25-.058.25-.057.23-.058.25-.058.25-.057.249-.039.25-.057.23-.039.135-.019-.96-5.205-.116.019ZM4.84 12.774l-.25.115-.249.135-.25.115-.25.115-.249.115-.25.135-.25.115-.25.134-.23.135-.25.134-.25.116-.23.134-.25.134-.23.135-.25.134-.23.135-.25.153-.23.135-.23.154-.212.115 2.785 4.514.173-.115.211-.135.192-.115.212-.115.211-.135.211-.115.23-.115.212-.116.211-.115.212-.134.211-.116.211-.096.23-.115.212-.115.211-.115.23-.096.212-.116.23-.115.212-.096.23-.096.116-.057-2.21-4.803-.114.039Z" fill="#fff"/></svg>